<svg width="165" height="93" viewBox="0 0 165 93" fill="none" xmlns="http://www.w3.org/2000/svg">
<g clip-path="url(#clip0_2_2)">
<path d="M0.984 40V6.4H7.2V19.72H21.408V6.4H27.624V40H21.408V25.648H7.2V40H0.984ZM45.4418 40.576C43.0898 40.576 41.0578 40.048 39.3458 38.992C37.6498 37.936 36.3378 36.448 35.4098 34.528C34.4978 32.592 34.0418 30.32 34.0418 27.712C34.0418 25.072 34.5058 22.792 35.4338 20.872C36.3778 18.952 37.6978 17.48 39.3938 16.456C41.1058 15.416 43.1218 14.896 45.4418 14.896C47.4258 14.896 49.2258 15.312 50.8418 16.144C52.4578 16.976 53.7458 18.256 54.7058 19.984C55.6658 21.696 56.1458 23.88 56.1458 26.536C56.1458 26.952 56.1298 27.464 56.0978 28.072C56.0818 28.664 56.0418 29.264 55.9778 29.872H39.9698C40.0338 30.992 40.2898 31.976 40.7378 32.824C41.2018 33.656 41.8338 34.304 42.6338 34.768C43.4338 35.232 44.3778 35.464 45.4658 35.464C46.6338 35.464 47.6498 35.272 48.5138 34.888C49.3778 34.488 50.1938 33.856 50.9618 32.992L54.4178 36.568C53.3618 37.768 52.0898 38.736 50.6018 39.472C49.1138 40.208 47.3938 40.576 45.4418 40.576ZM39.9938 25.192H50.3378C50.2578 24.12 50.0178 23.2 49.6178 22.432C49.2178 21.648 48.6578 21.048 47.9378 20.632C47.2178 20.216 46.3458 20.008 45.3218 20.008C43.9138 20.008 42.7138 20.44 41.7218 21.304C40.7298 22.168 40.1538 23.464 39.9938 25.192ZM62.1045 40V15.472H68.1045V40H62.1045ZM65.1045 12.4C64.1445 12.4 63.3125 12.056 62.6085 11.368C61.9205 10.664 61.5765 9.832 61.5765 8.872C61.5765 7.912 61.9205 7.096 62.6085 6.424C63.2965 5.736 64.1285 5.392 65.1045 5.392C66.1125 5.392 66.9525 5.728 67.6245 6.4C68.2965 7.072 68.6325 7.896 68.6325 8.872C68.6325 9.848 68.2885 10.68 67.6005 11.368C66.9285 12.056 66.0965 12.4 65.1045 12.4ZM75.6503 40V15.472H81.6503V17.824C82.4343 16.848 83.3703 16.12 84.4583 15.64C85.5623 15.144 86.8183 14.896 88.2263 14.896C90.9623 14.896 93.0743 15.744 94.5623 17.44C96.0503 19.12 96.7943 21.544 96.7943 24.712V40H90.8183V26.56C90.8183 24.496 90.4583 22.992 89.7383 22.048C89.0343 21.088 87.9303 20.608 86.4263 20.608C84.7943 20.608 83.5863 21.088 82.8023 22.048C82.0343 22.992 81.6503 24.464 81.6503 26.464V40H75.6503ZM0.984 90V56.4H12.312C15.224 56.4 17.704 56.88 19.752 57.84C21.8 58.784 23.456 60.064 24.72 61.68C26 63.28 26.928 65.08 27.504 67.08C28.096 69.064 28.392 71.104 28.392 73.2C28.392 75.12 28.112 77.064 27.552 79.032C27.008 81 26.112 82.816 24.864 84.48C23.616 86.128 21.944 87.464 19.848 88.488C17.768 89.496 15.192 90 12.12 90H0.984ZM7.2 84.096H12.768C14.48 84.096 15.92 83.776 17.088 83.136C18.256 82.48 19.192 81.624 19.896 80.568C20.616 79.496 21.136 78.32 21.456 77.04C21.792 75.744 21.96 74.464 21.96 73.2C21.96 71.856 21.792 70.536 21.456 69.24C21.12 67.944 20.6 66.768 19.896 65.712C19.192 64.656 18.296 63.816 17.208 63.192C16.12 62.568 14.816 62.256 13.296 62.256H7.2V84.096ZM41.2264 90.576C38.5544 90.576 36.4344 89.856 34.8664 88.416C33.3144 86.96 32.5384 84.992 32.5384 82.512C32.5384 80.912 32.9384 79.512 33.7384 78.312C34.5544 77.096 35.6824 76.16 37.1224 75.504C38.5784 74.832 40.2744 74.496 42.2104 74.496C43.2824 74.496 44.3144 74.6 45.3064 74.808C46.3144 75 47.1944 75.28 47.9464 75.648V74.112C47.9464 72.736 47.5544 71.704 46.7704 71.016C46.0024 70.312 44.8664 69.96 43.3624 69.96C42.1624 69.96 40.9304 70.176 39.6664 70.608C38.4024 71.04 37.1224 71.68 35.8264 72.528L34.0264 67.8C35.4344 66.872 37.0024 66.16 38.7304 65.664C40.4584 65.152 42.2024 64.896 43.9624 64.896C47.2584 64.896 49.7224 65.68 51.3544 67.248C52.9864 68.8 53.8024 71.12 53.8024 74.208V90H47.9464V88.032C47.1144 88.864 46.1224 89.496 44.9704 89.928C43.8344 90.36 42.5864 90.576 41.2264 90.576ZM42.6184 85.512C43.6104 85.512 44.5624 85.32 45.4744 84.936C46.4024 84.536 47.2264 83.976 47.9464 83.256V80.352C47.2584 80.016 46.4904 79.76 45.6424 79.584C44.8104 79.392 43.9784 79.296 43.1464 79.296C41.6584 79.296 40.4824 79.584 39.6184 80.16C38.7704 80.72 38.3464 81.504 38.3464 82.512C38.3464 83.456 38.7224 84.192 39.4744 84.72C40.2264 85.248 41.2744 85.512 42.6184 85.512ZM67.992 90.576C65.32 90.576 63.2 89.856 61.632 88.416C60.08 86.96 59.304 84.992 59.304 82.512C59.304 80.912 59.704 79.512 60.504 78.312C61.32 77.096 62.448 76.16 63.888 75.504C65.344 74.832 67.04 74.496 68.976 74.496C70.048 74.496 71.08 74.6 72.072 74.808C73.08 75 73.96 75.28 74.712 75.648V74.112C74.712 72.736 74.32 71.704 73.536 71.016C72.768 70.312 71.632 69.96 70.128 69.96C68.928 69.96 67.696 70.176 66.432 70.608C65.168 71.04 63.888 71.68 62.592 72.528L60.792 67.8C62.2 66.872 63.768 66.16 65.496 65.664C67.224 65.152 68.968 64.896 70.728 64.896C74.024 64.896 76.488 65.68 78.12 67.248C79.752 68.8 80.568 71.12 80.568 74.208V90H74.712V88.032C73.88 88.864 72.888 89.496 71.736 89.928C70.6 90.36 69.352 90.576 67.992 90.576ZM69.384 85.512C70.376 85.512 71.328 85.32 72.24 84.936C73.168 84.536 73.992 83.976 74.712 83.256V80.352C74.024 80.016 73.256 79.76 72.408 79.584C71.576 79.392 70.744 79.296 69.912 79.296C68.424 79.296 67.248 79.584 66.384 80.16C65.536 80.72 65.112 81.504 65.112 82.512C65.112 83.456 65.488 84.192 66.24 84.72C66.992 85.248 68.04 85.512 69.384 85.512ZM87.744 90V65.472H93.744V67.824C94.528 66.848 95.464 66.12 96.552 65.64C97.656 65.144 98.912 64.896 100.32 64.896C103.056 64.896 105.168 65.744 106.656 67.44C108.144 69.12 108.888 71.544 108.888 74.712V90H102.912V76.56C102.912 74.496 102.552 72.992 101.832 72.048C101.128 71.088 100.024 70.608 98.52 70.608C96.888 70.608 95.68 71.088 94.896 72.048C94.128 72.992 93.744 74.464 93.744 76.464V90H87.744ZM126.489 90.576C124.137 90.576 122.105 90.048 120.393 88.992C118.697 87.936 117.385 86.448 116.457 84.528C115.545 82.592 115.089 80.32 115.089 77.712C115.089 75.072 115.553 72.792 116.481 70.872C117.425 68.952 118.745 67.48 120.441 66.456C122.153 65.416 124.169 64.896 126.489 64.896C128.473 64.896 130.273 65.312 131.889 66.144C133.505 66.976 134.793 68.256 135.753 69.984C136.713 71.696 137.193 73.88 137.193 76.536C137.193 76.952 137.177 77.464 137.145 78.072C137.129 78.664 137.089 79.264 137.025 79.872H121.017C121.081 80.992 121.337 81.976 121.785 82.824C122.249 83.656 122.881 84.304 123.681 84.768C124.481 85.232 125.425 85.464 126.513 85.464C127.681 85.464 128.697 85.272 129.561 84.888C130.425 84.488 131.241 83.856 132.009 82.992L135.465 86.568C134.409 87.768 133.137 88.736 131.649 89.472C130.161 90.208 128.441 90.576 126.489 90.576ZM121.041 75.192H131.385C131.305 74.12 131.065 73.2 130.665 72.432C130.265 71.648 129.705 71.048 128.985 70.632C128.265 70.216 127.393 70.008 126.369 70.008C124.961 70.008 123.761 70.44 122.769 71.304C121.777 72.168 121.201 73.464 121.041 75.192ZM143.244 90V65.472H149.244V67.824C150.028 66.848 150.964 66.12 152.052 65.64C153.156 65.144 154.412 64.896 155.82 64.896C158.556 64.896 160.668 65.744 162.156 67.44C163.644 69.12 164.388 71.544 164.388 74.712V90H158.412V76.56C158.412 74.496 158.052 72.992 157.332 72.048C156.628 71.088 155.524 70.608 154.02 70.608C152.388 70.608 151.18 71.088 150.396 72.048C149.628 72.992 149.244 74.464 149.244 76.464V90H143.244Z" fill="black"/>
</g>
<defs>
<clipPath id="clip0_2_2">
<rect width="165" height="93" fill="white"/>
</clipPath>
</defs>
</svg>
